<svg viewBox="0 0 489 95" xmlns="http://www.w3.org/2000/svg" xmlns:xlink="http://www.w3.org/1999/xlink">
  <defs>
    <filter id="logo-extended-shadow" x="-1.9%" y="-11.5%" width="103.9%" height="127.1%" filterUnits="objectBoundingBox">
      <feOffset dy="2" in="SourceAlpha" result="shadowOffsetOuter1"/>
      <feGaussianBlur stdDeviation="4" in="shadowOffsetOuter1" result="shadowBlurOuter1"/>
      <feColorMatrix values="0 0 0 0 0 0 0 0 0 0 0 0 0 0 0 0 0 0 0.4 0" in="shadowBlurOuter1" result="shadowMatrixOuter1"/>
      <feMerge>
        <feMergeNode in="shadowMatrixOuter1"/>
        <feMergeNode in="SourceGraphic"/>
      </feMerge>
    </filter>
    <path id="logo-extended-path" d="M0 70V0h59.985v10.015h-39.99V30.01h39.99v9.997h-39.99V70H0zm79.998 0V0h59.985v10.015h-39.99V30.01h39.99v9.997h-39.99V70H79.998zm89.995 0v-9.998h-9.998V10.015h9.998V0h39.99v10.015h9.997v9.997h-19.995v-9.997H179.99v49.987h19.995v-9.997h19.995v9.997h-9.997V70h-39.99zm109.99-9.998V10.015h-19.995v49.987h19.995zM249.99 70v-9.998h-9.997V10.015h9.997V0h39.99v10.015h9.998v49.987h-9.998V70h-39.99zm70 0V0h19.995v10.015h9.998V30.01h-9.998V70H319.99zm39.99 0V50.005h-9.997V30.01h9.997V0h19.996v70H359.98zm40.008 0V0h59.985v10.015h-39.99V30.01h39.99v9.997h-39.99V70h-19.995z"/>
  </defs>
  <g filter="url(#logo-extended-shadow)" transform="translate(5 5)" fill-rule="evenodd">
    <use xlink:href="#logo-extended-path" fill="#F305E8" transform="translate(19 15.65)"/>
    <use xlink:href="#logo-extended-path" fill="#0F0" transform="translate(12.55 10.45)"/>
    <use xlink:href="#logo-extended-path" fill="#F00" transform="translate(6.4 5.2)"/>
    <use xlink:href="#logo-extended-path" fill="#FEFF00"/>
  </g>
</svg>