<svg viewBox="0 0 40 59" xmlns="http://www.w3.org/2000/svg">
  <path d="M23 23h5v2h-5v17h-2V25h-2v17h-2V25h-5v-2h5v-3h2v3h2v-3h2v3zm1-8h4v2h-3v5h-2v-7h1zm-8.5 0H17v7h-2v-5h-3v7h-2v-9h5.5zM37 12h3v17h-3V12zm-2-4h3v4h-3V8zm0 21h3v4h-3v-4zM34 5h3v3h-3V5zm-1 28h3v3h-3v-3zM31 3h3v2h-3V3zm0 33h3v2h-3v-2zm-2 1h2v2h-2v-2zm-2 2h2v8h-2v-8zm1-38h3v2h-3V1zM12 0h16v2H12V0zm0 47h16v2H12v-2zm0 4h16v2H12v-2zm2 4h12v2H14v-2zm2 2h8v2h-8v-2zm-4-8h2v2h-2v-2zm14 0h2v2h-2v-2zm-12 4h2v2h-2v-2zm10 0h2v2h-2v-2zM3 12v17H0V12h3zm2-4v4H2V8h3zm0 21v4H2v-4h3zM6 5v3H3V5h3zm1 28v3H4v-3h3zM9 3v2H6V3h3zm0 33v2H6v-2h3zm2 1v2H9v-2h2zm2 2v8h-2v-8h2zM12 1v2H9V1h3zm3 41h2v5h-2v-5zm8 0h2v5h-2v-5zm5-27h2v9h-2v-9z" fill-rule="evenodd"/>
</svg>
