<svg viewBox="0 0 83 123" xmlns="http://www.w3.org/2000/svg">
  <path d="M52 114v5h-3v-3H34v3h-3v-7h21v2zm-22.5-9H28v7h3v-3h21v3h3v-3h2v-4H29.5zM56 98h3v7h-4v-3H28v-4h28zM45 53h-7v39h-3V53H24v-4h11v-7h3v7h7v-7h3v7h11v4H48v39h-3V53zM24 0h35v4H24V0zm35 4h7v3h-7V4zm7 3h7v4h-7V7zm0 67h7v4h-7v-4zm-3 3h3v4h-3v-4zm-4 4h4v17h-4V81zm-42-4h3v4h-3v-4zm3 4h4v17h-4V81zm4 17h4v7h-4v-7zm7-10h4v10h-4V88zm0-56h4v14h-4V32zm-10 0h3v17h-3V32zm3 0h7v3h-7v-3zm24 56h4v10h-4V88zm0-56h4v14h-4V32zm11 0h3v17h-3V32zm-7 0h7v3h-7v-3zm-18 87h15v4H34v-4zM73 11h3v7h-3v-7zm0 56h3v7h-3v-7zM7 67h3v7H7v-7zm69-49h4v7h-4v-7zm0 42h4v7h-4v-7zM3 60h4v7H3v-7zm77-35h3v35h-3V25zM17 4h7v3h-7V4zm-7 3h7v4h-7V7zm0 67h7v4h-7v-4zM7 11h3v7H7v-7zm-4 7h4v7H3v-7zm-3 7h3v35H0V25z" fill-rule="evenodd"/>
</svg>
