<svg viewBox="0 0 52 50" xmlns="http://www.w3.org/2000/svg">
  <path d="M45 37h2v3h-7v-4h5v1zm4 .5V40h-1v-2h-1v-3h2v2.5zm1-1V38h-1V19h1v17.5zm-1-19V20h-4v-3h3v-2h1v2.5zM34 42h1v1h2v3H7v-3h3v-1h4v-2h6v2h4v-2h6v2h4v-2h4V20h-8v-2h8v-1h2v26h-5zm-6-19.5V40h-8V21h8v1.5zM14 22h4v18h-8V22h4zM10 3H7v2h3v2h2V1h-2v2zM9 48h26v2H9v-2zm-1-1h1v3H8v-3zm27-1h1v3h-1v-3zm1 0h1v2h-1v-2zm1-3h2v3h-2v-3zM10 20h8v2h-8v-2zm30-3h5v2h-5v-2zm7 3h2v15h-2V20zm3-1h2v17h-2V19zm-3 19v2h1v-2h-1zm2-21h1v2h-1v-2zm-2-2h1v2h-1v-2zm-7-2h7v2h-7v-2zm-1 2h3v2h-3v-2zM5 18h3v2H5v-2zm-3-2h3v2H2v-2zm-2-5h2v5H0v-5zm2-4h2v5H2V7zm3-2h2v2H5V5zm8-5h10v2H13V0zm9 2h10v2H22V2zm11 1h2v2h-2V3zm2 2h2v2h-2V5zm2 2h2v5h-2V7zM4 6h1v2H4V6zm8-5h1v2h-1V1zm8 2h2v4h-2V3zm2 1h1v1h-1V4zm10-2h1v2h-1V2zm7 8h1v2h-1v-2zm1 2h2v1h-2v-1zm-10 3h2v3h-2v-3zm-18 2h3v1h-3v-1zm1 1h3v2h-3v-2zm-6-8h2v5H7v-5zm38 25h2v2h-2v-2zm-5 5h7v2h-7v-2zM7 46h1v2H7v-2zm-2-3h2v3H5v-3zM3 18h2v25H3V18zm2 2h3v23H5V20zm3 26h27v1H8v-1zm1 1h26v1H9v-1zm21-25h8v18h-8V22zM8 40h2v3H8v-3zm22-20v2h8v-2h-8zm12-5h5v2h-5v-2z" fill-rule="evenodd"/>
</svg>
